<?xml version="1.0" encoding="utf-8"?>
<!-- Generator: Adobe Illustrator 24.1.0, SVG Export Plug-In . SVG Version: 6.00 Build 0)  -->
<svg version="1.1" id="Layer_1" xmlns="http://www.w3.org/2000/svg" xmlns:xlink="http://www.w3.org/1999/xlink" x="0px" y="0px"
	 viewBox="0 0 69.19 79.45" style="enable-background:new 0 0 69.19 79.45;" xml:space="preserve">
<style type="text/css">
	.st0{fill:#FFFFFF;}
</style>
<g>
	<g>
		<g>
			<path class="st0" d="M21.72,34.56c0,0-4.12-3.6-4.21-8.89c-0.08-4.33,1.39-9.12,7.15-12.1c0,0-2.39,3.59-1.95,7.32
				C23.06,23.92,26.04,28.75,21.72,34.56z"/>
			<path class="st0" d="M22.74,34.78c0,0,4.13-4.22,3.05-11.14c-0.95-6.07,0.61-9.57,5.45-11.72c3.97-1.77,7.76-0.8,13.61-0.84
				c5.39-0.03,7.08-3.41,7.08-3.41s1.76,6.23-6.86,8.13c0,0,5.66,6.75,14.35,2.12c0,0-2.55,9.98-15.67,8.23
				c-6.01-0.8-8.2,0.13-11.34,3.82C30.04,32.75,28.89,34.7,22.74,34.78z"/>
			<path class="st0" d="M37.08,27.51c0,0,0.91,0.77,1.81,1.71c1.71,1.77,4.82,3.26,8.24,1.31c0,0-1.5-0.18-2.78-1.4
				C42.2,27.08,39.85,26.52,37.08,27.51z"/>
			<g>
				<path class="st0" d="M52.22,56.46c0.28-0.89,1.12-3.78,1.12-6.77c0-2.94-0.59-5.48-0.81-6.33l-11.7,0.43l-0.07-0.03
					c-3.6-1.23-9.53-3.2-10.11-3.23c-0.71,0-4.39,0.29-5.23,0.56c-0.41,0.15-2.5,2.16-4.38,4.09c0.37,0.46,1.34,1.4,2.92,1.25
					c1.78-0.18,2.75-1.75,2.76-1.76l0.09-0.16l2.43-0.46l0.05,0.42c0.03,0.22,0.82,5.5,7.78,5.5c0.05,0,0.1,0,0.15,0l0.01,0.8
					c-0.05,0-0.11,0-0.16,0c-3.01,0-4.97-0.94-6.25-2.08c-0.06,0.74-0.44,1.4-1.01,1.82c0.74,0.41,1.24,1.19,1.24,2.09
					c0,1.03-0.66,1.91-1.58,2.24c0.37,0.38,0.61,0.9,0.61,1.48c0,0.52-0.19,1.01-0.51,1.38c6.65-0.19,9.14-1.6,9.17-1.62l0.1-0.06
					l0.12,0L52.22,56.46z"/>
				<path class="st0" d="M20.12,45.98h0.54c-0.31-0.32-0.48-0.59-0.5-0.62l0,0c-0.09-0.15-0.07-0.35,0.05-0.49
					c0.4-0.42,1.2-1.23,2.04-2.06h-2.14c-0.87,0-1.58,0.71-1.58,1.58C18.54,45.27,19.25,45.98,20.12,45.98z"/>
				<path class="st0" d="M29.27,56.34c0-0.73-0.59-1.31-1.31-1.31h-2.06h-4.7c-0.73,0-1.31,0.59-1.31,1.31
					c0,0.72,0.59,1.31,1.31,1.31h6.14h0.62C28.69,57.66,29.27,57.07,29.27,56.34z"/>
				<path class="st0" d="M21.04,54.2h4.42h3.22c0.87,0,1.58-0.71,1.58-1.58c0-0.87-0.71-1.58-1.58-1.58h-4.94h-2.69
					c-0.87,0-1.58,0.71-1.58,1.58C19.45,53.5,20.16,54.2,21.04,54.2z"/>
				<path class="st0" d="M20.69,50.23h2.59h5.03c0.95,0,1.72-0.77,1.72-1.72s-0.77-1.72-1.72-1.72h-2.79
					c-0.43,0.22-0.92,0.38-1.49,0.44c-0.94,0.09-1.7-0.12-2.29-0.44h-0.33h-0.71c-0.95,0-1.72,0.77-1.72,1.72
					S19.75,50.23,20.69,50.23z"/>
			</g>
			<g>
				<path class="st0" d="M20.12,42.01h2.97c0.9-0.85,1.74-1.57,2.08-1.68c0.63-0.2,2.51-0.4,3.92-0.51l0.41-3.59H18.94l0.67,5.83
					C19.77,42.03,19.94,42.01,20.12,42.01z"/>
				<polygon class="st0" points="21.49,58.46 22.16,64.27 26.29,64.27 26.95,58.46 				"/>
			</g>
		</g>
		<path class="st0" d="M34.52,79.2l-0.38-0.18C20.49,72.58,11.23,65.55,5.81,57.25C1,49.88,0.18,42.81,0,37.49V0h69.05v37.46
			c-0.18,5.36-1.01,12.42-5.82,19.8c-5.41,8.3-14.68,15.33-28.33,21.77L34.52,79.2z M1.76,1.76v35.7
			C2.18,49.69,6.4,63.88,34.52,77.25c28.12-13.37,32.35-27.56,32.76-39.82V1.76H1.76z"/>
	</g>
	<path class="st0" d="M28.9,45.98c-0.16-0.39-0.27-0.73-0.33-0.97l-1.28,0.24c-0.12,0.17-0.33,0.44-0.64,0.73H28.9z"/>
</g>
</svg>
